{"title":"Thunder Squad aka Wild Team (1985)","uid":8213498,"size":1582740590,"categoryP":"video","categoryS":"movies","magnet":"?xt=urn:btih:52182b6f50c700f271524ef625cc6885735c4801&amp;dn=Thunder+Squad+aka+Wild+Team+%281985%29&amp;tr=udp%3A%2F%2Ftracker.openbittorrent.com%3A80&amp;tr=udp%3A%2F%2Fopen.demonii.com%3A1337&amp;tr=udp%3A%2F%2Ftracker.coppersurfer.tk%3A6969&amp;tr=udp%3A%2F%2Fexodus.desync.com%3A6969","seeders":0,"leechers":1,"uploader":"RadioResearch","files":3,"time":1362289423,"description":"*******************************************************************************\n                      Thunder Squad aka Wild Team (1985)\n*******************************************************************************\n\n-------------------------------------------------------------------------------\n                              General Information\n-------------------------------------------------------------------------------\nType.................: Movie\n\n\n\nVideo Format.........: AVI\nVideo Bitrate........: 2451\nResolution...........: 766 x 576\nColor................: 8 bit\nFPS..................: 23.976\nSource...............: DVD 4x3\nOriginal Format......: PAL\nGenre................: War\nIMDb Rating..........: 5.2\nMovie Information....: http://www.imdb.com/title/tt0125700\n\n-------------------------------------------------------------------------------\n                               Post Information\n-------------------------------------------------------------------------------\nPosted by............: RadioResearch\nPosted on............: 3/3/2013\n\n-------------------------------------------------------------------------------\n                                 Release Notes\n-------------------------------------------------------------------------------\nSEEDBOX SUPPORTED!\n\nA South American rebel leader in exile in Miami is given one last chance to \noverthrow his successor, a brutal dictator, by a multi-national mining group out \nto exploit his countries' mineral resources. PROBLEM: The leader's only son is \nheld hostage by the dictator, and will be executed at the first sign of attack. \nSOLUTION: Recruit a team of deadly fighters, all experts in guerilla warfare, to \nfree the boy and eliminate the resistance. Thus, the Thunder Squad is born. The \nThunder Sqaud is an all action, all fighting, all thrilling adventure into the \ncountry of a madman! \n\nMore Macaroni Combat with this stinker of a film.  Somehow it got 5.2 on IMDB, \nbut yet it has its interesting moments, even with bad acting and impossible \nprops.  Took me a while to find a DVD of this, and the DVD is clearly made from \na video, but it is clean and I have only noticed one or too extremely small \ntracking ripples during the film.  V=8.5 A=9.\n\nEnjoy!\nRadioResearch\n\nGeneral\nComplete name                            : G:AVIThunder Squad aka Wild Team \n(1985)Title 01_02.avi\nFormat                                   : AVI\nFormat/Info                              : Audio Video Interleave\nFormat profile                           : OpenDML\nFile size                                : 1.47 GiB\nDuration                                 : 1h 23mn\nOverall bit rate                         : 2 541 Kbps\nWriting application                      : Lavf51.12.1\n\nVideo\nID                                       : 0\nFormat                                   : MPEG-4 Visual\nFormat profile                           : Simple@L1\nFormat settings, BVOP                    : No\nFormat settings, QPel                    : No\nFormat settings, GMC                     : No warppoints\nFormat settings, Matrix                  : Default (H.263)\nCodec ID                                 : DX50\nCodec ID/Hint                            : DivX 5\nDuration                                 : 1h 23mn\nBit rate                                 : 2 400 Kbps\nWidth                                    : 766 pixels\nHeight                                   : 576 pixels\nDisplay aspect ratio                     : 4:3\nFrame rate                               : 23.976 fps\nColor space                              : YUV\nChroma subsampling                       : 4:2:0\nBit depth                                : 8 bits\nScan type                                : Progressive\nCompression mode                         : Lossy\nBits/(Pixel*Frame)                       : 0.227\nStream size                              : 1.39 GiB (94%)\nWriting library                          : Lavc51.40.4\n\nAudio\nID                                       : 1\nFormat                                   : MPEG Audio\nFormat version                           : Version 1\nFormat profile                           : Layer 3\nMode                                     : Joint stereo\nMode extension                           : MS Stereo\nCodec ID                                 : 55\nCodec ID/Hint                            : MP3\nDuration                                 : 1h 23mn\nBit rate mode                            : Constant\nBit rate                                 : 128 Kbps\nChannel(s)                               : 2 channels\nSampling rate                            : 44.1 KHz\nCompression mode                         : Lossy\nStream size                              : 76.0 MiB (5%)\nAlignment                                : Aligned on interleaves\nInterleave, duration                     : 26 ms (0.63 video frame)\n\n\n\n\n-------------------------------------------------------------------------------\nGenerated with Cool NFO Creator - http://fly.to/coolbeans\n-------------------------------------------------------------------------------\n","torrent":{"xt":"urn:btih:52182b6f50c700f271524ef625cc6885735c4801","amp;dn":"Thunder+Squad+aka+Wild+Team+%281985%29","amp;tr":["udp%3A%2F%2Ftracker.openbittorrent.com%3A80","udp%3A%2F%2Fopen.demonii.com%3A1337","udp%3A%2F%2Ftracker.coppersurfer.tk%3A6969","udp%3A%2F%2Fexodus.desync.com%3A6969"],"infoHash":"52182b6f50c700f271524ef625cc6885735c4801","infoHashBuffer":{"type":"Buffer","data":[82,24,43,111,80,199,0,242,113,82,78,246,37,204,104,133,115,92,72,1]},"announce":[],"urlList":[]}}